{"title":"The mirror Crack'd(1980)E.Taylor- dual-Eng-Span.avi","uid":4493164,"size":735690752,"categoryP":"video","categoryS":"movies","magnet":"?xt=urn:btih:27f54258bda44b57e95743fa80ca8bd58cc67cd4&amp;dn=The+mirror+Crack%5C%27d%281980%29E.Taylor-+dual-Eng-Span.avi&amp;tr=udp%3A%2F%2Ftracker.openbittorrent.com%3A80&amp;tr=udp%3A%2F%2Fopen.demonii.com%3A1337&amp;tr=udp%3A%2F%2Ftracker.coppersurfer.tk%3A6969&amp;tr=udp%3A%2F%2Fexodus.desync.com%3A6969","seeders":2,"leechers":0,"uploader":"johnefp","files":-1,"time":1226070969,"description":"Dual sound Eng-Span\n\nJane Marple solves the mystery when a local woman is poisoned and a visiting movie star seems to have been the intended victim.\n &lt;a href=&quot;\nhttp://www.imdb.com/title/tt0081163/&quot; rel=&quot;nofollow&quot; target=&quot;_NEW&quot;&gt;\nhttp://www.imdb.com/title/tt0081163/&lt;/a&gt;\n\n\nDirector:\nGuy Hamilton\n\n        Angela Lansbury\t ... \tMiss Jane Marple\n\tGeraldine Chaplin\t... \tElla Zielinsky\n\n\tTony Curtis\t... \tMartin N. Fenn\n\tEdward Fox\t... \tInspector Dermot Craddock\n\n\tRock Hudson\t... \tJason Rudd\n\n\tKim Novak\t... \tLola Brewster\n\n\tElizabeth Taylor\t... \tMarina Rudd\n\n   Video\n      Format : MPEG-4 Visual\n      Format settings, BVOP : Yes\n      Format settings, QPel : No\n      Format settings, GMC : 2 warppoints\n      Format settings, Matrix : Default\n      Muxing mode : Packed bitstream\n      Codec ID : DX50\n      Codec ID/Hint : DivX 5\n      Duration : 1h 41mn\n      Bit rate : 763 Kbps\n      Width : 544 pixels\n      Height : 304 pixels\n      Display aspect ratio : 16/9\n      Frame rate : 25.000 fps\n      Resolution : 24 bits\n      Scan type : Progressive\n      Bits/(Pixel*Frame) : 0.185\n      Stream size : 552 MiB (79%)\n   Audio\n      Format : MPEG Audio\n      Format version : Version 1\n      Format profile : Layer 3\n      Codec ID : 55\n      Codec ID/Hint : MP3\n      Duration : 1h 41mn\n      Bit rate mode : Constant\n      Bit rate : 96.0 Kbps\n      Channel(s) : 2 channels\n      Sampling rate : 32.0 KHz\n      Resolution : 16 bits\n      Video delay : 14ms\n      Stream size : 69.4 MiB (10%)\n      Alignment : Aligned on interleaves\n      Interleave, duration : 36 ms (0.90 video frame)\n      Interleave, preload duration : 504 ms\n   Audio\n      Format : MPEG Audio\n      Format version : Version 1\n      Format profile : Layer 3\n      Codec ID : 55\n      Codec ID/Hint : MP3\n      Duration : 1h 41mn\n      Bit rate mode : Constant\n      Bit rate : 96.0 Kbps\n      Channel(s) : 2 channels\n      Sampling rate : 32.0 KHz\n      Resolution : 16 bits\n      Video delay : 14ms\n      Stream size : 69.4 MiB (10%)\n      Alignment : Aligned on interleaves\n      Interleave, duration : 36 ms (0.90 video frame)\n      Interleave, preload duration : 504 ms\n\n    Enjoy  and  Seed\n","torrent":{"xt":"urn:btih:27f54258bda44b57e95743fa80ca8bd58cc67cd4","amp;dn":"The+mirror+Crack%5C%27d%281980%29E.Taylor-+dual-Eng-Span.avi","amp;tr":["udp%3A%2F%2Ftracker.openbittorrent.com%3A80","udp%3A%2F%2Fopen.demonii.com%3A1337","udp%3A%2F%2Ftracker.coppersurfer.tk%3A6969","udp%3A%2F%2Fexodus.desync.com%3A6969"],"infoHash":"27f54258bda44b57e95743fa80ca8bd58cc67cd4","infoHashBuffer":{"type":"Buffer","data":[39,245,66,88,189,164,75,87,233,87,67,250,128,202,139,213,140,198,124,212]},"announce":[],"urlList":[]}}